<?xml version="1.0" encoding="UTF-8" standalone="no"?>
<!-- Created with Inkscape (http://www.inkscape.org/) -->

<svg
   xmlns:dc="http://purl.org/dc/elements/1.1/"
   xmlns:cc="http://creativecommons.org/ns#"
   xmlns:rdf="http://www.w3.org/1999/02/22-rdf-syntax-ns#"
   xmlns:svg="http://www.w3.org/2000/svg"
   xmlns="http://www.w3.org/2000/svg"
   xmlns:sodipodi="http://sodipodi.sourceforge.net/DTD/sodipodi-0.dtd"
   xmlns:inkscape="http://www.inkscape.org/namespaces/inkscape"
   width="744.09448819"
   height="1052.3622047"
   id="svg2"
   version="1.1"
   inkscape:version="0.48.0 r9654"
   sodipodi:docname="particles.png">
  <defs
     id="defs4" />
  <sodipodi:namedview
     id="base"
     pagecolor="#ffffff"
     bordercolor="#666666"
     borderopacity="1.0"
     inkscape:pageopacity="0.0"
     inkscape:pageshadow="2"
     inkscape:zoom="0.50457914"
     inkscape:cx="317.36906"
     inkscape:cy="516.21506"
     inkscape:document-units="px"
     inkscape:current-layer="layer1"
     showgrid="false"
     inkscape:window-width="1280"
     inkscape:window-height="750"
     inkscape:window-x="-8"
     inkscape:window-y="-8"
     inkscape:window-maximized="1" />
  <metadata
     id="metadata7">
    <rdf:RDF>
      <cc:Work
         rdf:about="">
        <dc:format>image/svg+xml</dc:format>
        <dc:type
           rdf:resource="http://purl.org/dc/dcmitype/StillImage" />
        <dc:title></dc:title>
      </cc:Work>
    </rdf:RDF>
  </metadata>
  <g
     inkscape:label="Layer 1"
     inkscape:groupmode="layer"
     id="layer1">
    <path
       sodipodi:type="arc"
       style="opacity:0.5;fill:#080ed9;fill-opacity:1;fill-rule:nonzero;stroke:#000000;stroke-width:4.11000013;stroke-linejoin:miter;stroke-miterlimit:4;stroke-opacity:1;stroke-dasharray:none;stroke-dashoffset:0"
       id="path3779"
       sodipodi:cx="215.03069"
       sodipodi:cy="284.39545"
       sodipodi:rx="32.70052"
       sodipodi:ry="32.70052"
       d="m 247.7312,284.39545 a 32.70052,32.70052 0 1 1 -65.40103,0 32.70052,32.70052 0 1 1 65.40103,0 z"
       transform="translate(13.872948,312.20173)" />
    <path
       d="m 247.7312,284.39545 a 32.70052,32.70052 0 1 1 -65.40103,0 32.70052,32.70052 0 1 1 65.40103,0 z"
       sodipodi:ry="32.70052"
       sodipodi:rx="32.70052"
       sodipodi:cy="284.39545"
       sodipodi:cx="215.03069"
       id="path3781"
       style="opacity:0.5;fill:#080ed9;fill-opacity:1;fill-rule:nonzero;stroke:#000000;stroke-width:4.11000013;stroke-linejoin:miter;stroke-miterlimit:4;stroke-opacity:1;stroke-dasharray:none;stroke-dashoffset:0"
       sodipodi:type="arc"
       transform="translate(-112.96543,256.70994)" />
    <path
       sodipodi:type="arc"
       style="opacity:0.5;fill:#d5fa00;fill-opacity:1;fill-rule:nonzero;stroke:#000000;stroke-width:4.11000013;stroke-linejoin:miter;stroke-miterlimit:4;stroke-opacity:1;stroke-dasharray:none;stroke-dashoffset:0"
       id="path3783"
       sodipodi:cx="215.03069"
       sodipodi:cy="284.39545"
       sodipodi:rx="32.70052"
       sodipodi:ry="32.70052"
       d="m 247.7312,284.39545 a 32.70052,32.70052 0 1 1 -65.40103,0 32.70052,32.70052 0 1 1 65.40103,0 z"
       transform="translate(101.07433,207.1637)" />
    <path
       d="m 247.7312,284.39545 a 32.70052,32.70052 0 1 1 -65.40103,0 32.70052,32.70052 0 1 1 65.40103,0 z"
       sodipodi:ry="32.70052"
       sodipodi:rx="32.70052"
       sodipodi:cy="284.39545"
       sodipodi:cx="215.03069"
       id="path3785"
       style="opacity:0.5;fill:#080ed9;fill-opacity:1;fill-rule:nonzero;stroke:#000000;stroke-width:4.11000013;stroke-linejoin:miter;stroke-miterlimit:4;stroke-opacity:1;stroke-dasharray:none;stroke-dashoffset:0"
       sodipodi:type="arc"
       transform="translate(-93.146934,110.05307)" />
    <path
       sodipodi:type="arc"
       style="opacity:0.5;fill:#080ed9;fill-opacity:1;fill-rule:nonzero;stroke:#000000;stroke-width:4.11000013;stroke-linejoin:miter;stroke-miterlimit:4;stroke-opacity:1;stroke-dasharray:none;stroke-dashoffset:0"
       id="path3787"
       sodipodi:cx="215.03069"
       sodipodi:cy="284.39545"
       sodipodi:rx="32.70052"
       sodipodi:ry="32.70052"
       d="m 247.7312,284.39545 a 32.70052,32.70052 0 1 1 -65.40103,0 32.70052,32.70052 0 1 1 65.40103,0 z"
       transform="translate(-57.47364,429.13086)" />
    <path
       d="m 247.7312,284.39545 a 32.70052,32.70052 0 1 1 -65.40103,0 32.70052,32.70052 0 1 1 65.40103,0 z"
       sodipodi:ry="32.70052"
       sodipodi:rx="32.70052"
       sodipodi:cy="284.39545"
       sodipodi:cx="215.03069"
       id="path3789"
       style="opacity:0.5;fill:#080ed9;fill-opacity:1;fill-rule:nonzero;stroke:#000000;stroke-width:4.11000013;stroke-linejoin:miter;stroke-miterlimit:4;stroke-opacity:1;stroke-dasharray:none;stroke-dashoffset:0"
       sodipodi:type="arc"
       transform="translate(275.4771,314.18358)" />
    <path
       sodipodi:type="arc"
       style="opacity:0.5;fill:#080ed9;fill-opacity:1;fill-rule:nonzero;stroke:#000000;stroke-width:4.11000013;stroke-linejoin:miter;stroke-miterlimit:4;stroke-opacity:1;stroke-dasharray:none;stroke-dashoffset:0"
       id="path3791"
       sodipodi:cx="215.03069"
       sodipodi:cy="284.39545"
       sodipodi:rx="32.70052"
       sodipodi:ry="32.70052"
       d="m 247.7312,284.39545 a 32.70052,32.70052 0 1 1 -65.40103,0 32.70052,32.70052 0 1 1 65.40103,0 z"
       transform="translate(71.346588,508.40485)" />
    <path
       d="m 247.7312,284.39545 a 32.70052,32.70052 0 1 1 -65.40103,0 32.70052,32.70052 0 1 1 65.40103,0 z"
       sodipodi:ry="32.70052"
       sodipodi:rx="32.70052"
       sodipodi:cy="284.39545"
       sodipodi:cx="215.03069"
       id="path3793"
       style="opacity:0.5;fill:#080ed9;fill-opacity:1;fill-rule:nonzero;stroke:#000000;stroke-width:4.11000013;stroke-linejoin:miter;stroke-miterlimit:4;stroke-opacity:1;stroke-dasharray:none;stroke-dashoffset:0"
       sodipodi:type="arc"
       transform="translate(285.38635,147.70821)" />
    <path
       sodipodi:type="arc"
       style="opacity:0.5;fill:#080ed9;fill-opacity:1;fill-rule:nonzero;stroke:#000000;stroke-width:4.11000013;stroke-linejoin:miter;stroke-miterlimit:4;stroke-opacity:1;stroke-dasharray:none;stroke-dashoffset:0"
       id="path3795"
       sodipodi:cx="215.03069"
       sodipodi:cy="284.39545"
       sodipodi:rx="32.70052"
       sodipodi:ry="32.70052"
       d="m 247.7312,284.39545 a 32.70052,32.70052 0 1 1 -65.40103,0 32.70052,32.70052 0 1 1 65.40103,0 z"
       transform="translate(384.47884,387.51202)" />
    <path
       d="m 247.7312,284.39545 a 32.70052,32.70052 0 1 1 -65.40103,0 32.70052,32.70052 0 1 1 65.40103,0 z"
       sodipodi:ry="32.70052"
       sodipodi:rx="32.70052"
       sodipodi:cy="284.39545"
       sodipodi:cx="215.03069"
       id="path3797"
       style="opacity:0.5;fill:#080ed9;fill-opacity:1;fill-rule:nonzero;stroke:#000000;stroke-width:4.11000013;stroke-linejoin:miter;stroke-miterlimit:4;stroke-opacity:1;stroke-dasharray:none;stroke-dashoffset:0"
       sodipodi:type="arc"
       transform="translate(114.94728,96.180117)" />
    <path
       transform="translate(-15.854797,183.3815)"
       d="m 247.7312,284.39545 a 32.70052,32.70052 0 1 1 -65.40103,0 32.70052,32.70052 0 1 1 65.40103,0 z"
       sodipodi:ry="32.70052"
       sodipodi:rx="32.70052"
       sodipodi:cy="284.39545"
       sodipodi:cx="215.03069"
       id="path3799"
       style="opacity:0.5;fill:#080ed9;fill-opacity:1;fill-rule:nonzero;stroke:#000000;stroke-width:4.11000013;stroke-linejoin:miter;stroke-miterlimit:4;stroke-opacity:1;stroke-dasharray:none;stroke-dashoffset:0"
       sodipodi:type="arc" />
    <path
       sodipodi:type="arc"
       style="opacity:0.5;fill:#080ed9;fill-opacity:1;fill-rule:nonzero;stroke:#000000;stroke-width:4.11000013;stroke-linejoin:miter;stroke-miterlimit:4;stroke-opacity:1;stroke-dasharray:none;stroke-dashoffset:0"
       id="path3801"
       sodipodi:cx="215.03069"
       sodipodi:cy="284.39545"
       sodipodi:rx="32.70052"
       sodipodi:ry="32.70052"
       d="m 247.7312,284.39545 a 32.70052,32.70052 0 1 1 -65.40103,0 32.70052,32.70052 0 1 1 65.40103,0 z"
       transform="translate(128.82023,351.83872)" />
    <path
       transform="translate(-3.9636993,40.688327)"
       d="m 247.7312,284.39545 a 32.70052,32.70052 0 1 1 -65.40103,0 32.70052,32.70052 0 1 1 65.40103,0 z"
       sodipodi:ry="32.70052"
       sodipodi:rx="32.70052"
       sodipodi:cy="284.39545"
       sodipodi:cx="215.03069"
       id="path3803"
       style="opacity:0.5;fill:#080ed9;fill-opacity:1;fill-rule:nonzero;stroke:#000000;stroke-width:4.11000013;stroke-linejoin:miter;stroke-miterlimit:4;stroke-opacity:1;stroke-dasharray:none;stroke-dashoffset:0"
       sodipodi:type="arc" />
    <path
       sodipodi:type="arc"
       style="opacity:0.5;fill:#080ed9;fill-opacity:1;fill-rule:nonzero;stroke:#000000;stroke-width:4.11000013;stroke-linejoin:miter;stroke-miterlimit:4;stroke-opacity:1;stroke-dasharray:none;stroke-dashoffset:0"
       id="path3805"
       sodipodi:cx="215.03069"
       sodipodi:cy="284.39545"
       sodipodi:rx="32.70052"
       sodipodi:ry="32.70052"
       d="m 247.7312,284.39545 a 32.70052,32.70052 0 1 1 -65.40103,0 32.70052,32.70052 0 1 1 65.40103,0 z"
       transform="translate(303.223,36.724627)" />
    <path
       transform="translate(210.07606,435.07641)"
       d="m 247.7312,284.39545 a 32.70052,32.70052 0 1 1 -65.40103,0 32.70052,32.70052 0 1 1 65.40103,0 z"
       sodipodi:ry="32.70052"
       sodipodi:rx="32.70052"
       sodipodi:cy="284.39545"
       sodipodi:cx="215.03069"
       id="path3807"
       style="opacity:0.5;fill:#080ed9;fill-opacity:1;fill-rule:nonzero;stroke:#000000;stroke-width:4.11000013;stroke-linejoin:miter;stroke-miterlimit:4;stroke-opacity:1;stroke-dasharray:none;stroke-dashoffset:0"
       sodipodi:type="arc" />
    <path
       sodipodi:type="arc"
       style="opacity:0.5;fill:#080ed9;fill-opacity:1;fill-rule:nonzero;stroke:#000000;stroke-width:4.11000013;stroke-linejoin:miter;stroke-miterlimit:4;stroke-opacity:1;stroke-dasharray:none;stroke-dashoffset:0"
       id="path3809"
       sodipodi:cx="215.03069"
       sodipodi:cy="284.39545"
       sodipodi:rx="32.70052"
       sodipodi:ry="32.70052"
       d="m 247.7312,284.39545 a 32.70052,32.70052 0 1 1 -65.40103,0 32.70052,32.70052 0 1 1 65.40103,0 z"
       transform="translate(319.07779,516.33225)" />
    <path
       transform="translate(412.22473,250.76439)"
       d="m 247.7312,284.39545 a 32.70052,32.70052 0 1 1 -65.40103,0 32.70052,32.70052 0 1 1 65.40103,0 z"
       sodipodi:ry="32.70052"
       sodipodi:rx="32.70052"
       sodipodi:cy="284.39545"
       sodipodi:cx="215.03069"
       id="path3811"
       style="opacity:0.5;fill:#080ed9;fill-opacity:1;fill-rule:nonzero;stroke:#000000;stroke-width:4.11000013;stroke-linejoin:miter;stroke-miterlimit:4;stroke-opacity:1;stroke-dasharray:none;stroke-dashoffset:0"
       sodipodi:type="arc" />
    <path
       sodipodi:type="arc"
       style="opacity:0.5;fill:#080ed9;fill-opacity:1;fill-rule:nonzero;stroke:#000000;stroke-width:4.11000013;stroke-linejoin:miter;stroke-miterlimit:4;stroke-opacity:1;stroke-dasharray:none;stroke-dashoffset:0"
       id="path3813"
       sodipodi:cx="215.03069"
       sodipodi:cy="284.39545"
       sodipodi:rx="32.70052"
       sodipodi:ry="32.70052"
       d="m 247.7312,284.39545 a 32.70052,32.70052 0 1 1 -65.40103,0 32.70052,32.70052 0 1 1 65.40103,0 z"
       transform="translate(434.02507,98.161977)" />
    <path
       sodipodi:type="arc"
       style="opacity:0.5;fill:none;stroke:#ea6b4e;stroke-width:4.11000013;stroke-linejoin:miter;stroke-miterlimit:4;stroke-opacity:1;stroke-dasharray:8.22, 8.22;stroke-dashoffset:0"
       id="path3821"
       sodipodi:cx="316.10501"
       sodipodi:cy="251.69492"
       sodipodi:rx="215.03069"
       sodipodi:ry="218.00346"
       d="m 531.1357,251.69492 a 215.03069,218.00346 0 1 1 -430.06137,0 215.03069,218.00346 0 1 1 430.06137,0 z"
       transform="translate(0,242.83699)" />
  </g>
</svg>
